<?xml version="1.0" standalone="no"?>
<!DOCTYPE svg PUBLIC "-//W3C//DTD SVG 20010904//EN"
 "http://www.w3.org/TR/2001/REC-SVG-20010904/DTD/svg10.dtd">
<svg version="1.0" xmlns="http://www.w3.org/2000/svg"
 width="886.000000pt" height="1280.000000pt" viewBox="0 0 886.000000 1280.000000"
 preserveAspectRatio="xMidYMid meet">
<metadata>
Created by potrace 1.15, written by Peter Selinger 2001-2017
</metadata>
<g transform="translate(0.000000,1280.000000) scale(0.100000,-0.100000)"
fill="#2196f3" stroke="none">
<path d="M5159 12639 c-629 -551 -1236 -1170 -1750 -1784 -571 -684 -1036
-1348 -1451 -2075 -145 -254 -408 -772 -517 -1020 -960 -2182 -973 -4176 -35
-5811 151 -264 415 -642 519 -742 28 -27 100 -90 160 -141 1211 -1022 2797
-1335 4160 -823 888 333 1597 982 2041 1867 206 410 378 931 448 1350 40 239
46 306 52 565 24 944 -293 1806 -1064 2895 -141 198 -349 475 -709 941 -764
989 -1045 1407 -1318 1964 -312 635 -456 1194 -472 1825 -8 353 16 630 87 981
17 84 29 154 27 156 -3 2 -83 -65 -178 -148z"/>
</g>
</svg>
